<svg width="40" height="56" viewBox="0 0 40 56" fill="none" xmlns="http://www.w3.org/2000/svg">
<g filter="url(#filter0_d_9_4)">
<path fill-rule="evenodd" clip-rule="evenodd" d="M27.3958 23.6529C27.3524 23.9311 27.2466 24.1959 27.0863 24.4275C26.926 24.659 26.7154 24.8512 26.4703 24.9898C25.9766 25.3086 25.5447 25.468 25.1077 25.6274C24.177 25.9488 23.1974 26.2702 22.1613 26.643C21.0687 27.0157 20.0891 27.3885 19.215 27.6585C18.1249 28.0313 17.0888 28.3526 16.1041 28.7254C15.3633 29.0425 14.6674 29.4556 14.0345 29.9544C13.4458 30.4877 12.9321 31.0983 12.5073 31.7695C12.0703 32.515 11.7952 33.4766 11.7952 34.5975C11.7952 36.842 12.3402 38.5491 13.4329 39.6161C14.523 40.7396 16.5438 41.2718 19.5389 41.2718C22.5933 41.2718 24.6655 40.6856 25.7607 39.5107C26.8482 38.3357 27.3932 36.6826 27.3932 34.5487V23.6529H27.3958ZM19.5415 0C24.8891 0 28.815 1.01553 31.3217 3.09802C33.831 5.12908 35.0856 7.74119 35.0856 10.8366V37.2148C35.0856 38.2817 34.8696 39.4567 34.4891 40.737C34.1035 42.0225 33.3425 43.1949 32.1418 44.2592C30.9977 45.3313 29.4166 46.2389 27.3984 46.933C25.3802 47.6272 22.7629 48 19.5441 48C16.3304 48 13.708 47.6272 11.6923 46.933C9.6767 46.2389 8.09298 45.3313 6.9489 44.2592C5.8846 43.3001 5.07834 42.089 4.60418 40.737C4.21853 39.4592 4 38.2843 4 37.2174V33.001C4 30.7565 4.59904 28.674 5.79968 26.8563C7.00032 24.9898 8.68945 23.7095 10.8722 22.9073C11.9623 22.5345 13.2169 22.1618 14.6335 21.681C16.0527 21.1976 17.3588 20.7169 18.6699 20.2927C19.9811 19.8633 21.1252 19.434 22.1048 19.0586C22.6959 18.8221 23.2963 18.6094 23.9044 18.421L24.8866 17.9402C25.2722 17.7268 25.6501 17.4055 26.0332 16.9787C26.4137 16.5545 26.7402 16.0737 27.0153 15.5389C27.306 14.9599 27.4557 14.3203 27.4524 13.6724V11.9627C27.4564 11.3361 27.3249 10.716 27.0667 10.145C26.8508 9.5023 26.4137 8.91612 25.8147 8.38393C25.2156 7.84917 24.3955 7.42239 23.416 7.09845C22.4338 6.78222 21.1278 6.62025 19.6521 6.62025C16.5977 6.62025 14.5795 7.21157 13.4894 8.43535C12.5639 9.50488 12.0189 10.8392 11.9109 12.3329C11.9109 12.6543 11.6383 12.8677 11.3093 12.8677L4.65817 12.9757C4.50018 12.9764 4.34831 12.9146 4.23563 12.8039C4.12296 12.6931 4.05859 12.5423 4.05656 12.3844V10.8418C4.05656 9.3429 4.33166 7.95458 4.93069 6.62025C5.5323 5.28334 6.46042 4.16497 7.71248 3.20086C8.96711 2.24189 10.6048 1.44231 12.5665 0.907552C14.4767 0.26481 16.8214 0 19.5467 0H19.5415Z" fill="white"/>
</g>
<defs>
<filter id="filter0_d_9_4" x="0" y="0" width="39.0856" height="56" filterUnits="userSpaceOnUse" color-interpolation-filters="sRGB">
<feFlood flood-opacity="0" result="BackgroundImageFix"/>
<feColorMatrix in="SourceAlpha" type="matrix" values="0 0 0 0 0 0 0 0 0 0 0 0 0 0 0 0 0 0 127 0" result="hardAlpha"/>
<feOffset dy="4"/>
<feGaussianBlur stdDeviation="2"/>
<feComposite in2="hardAlpha" operator="out"/>
<feColorMatrix type="matrix" values="0 0 0 0 0 0 0 0 0 0 0 0 0 0 0 0 0 0 0.25 0"/>
<feBlend mode="normal" in2="BackgroundImageFix" result="effect1_dropShadow_9_4"/>
<feBlend mode="normal" in="SourceGraphic" in2="effect1_dropShadow_9_4" result="shape"/>
</filter>
</defs>
</svg>
